<svg id="visual" viewBox="0 0 960 540" width="960" height="540" xmlns="http://www.w3.org/2000/svg" xmlns:xlink="http://www.w3.org/1999/xlink" version="1.1"><rect x="0" y="0" width="960" height="540" fill="#34856f"></rect><path d="M0 215L40 201C80 187 160 159 240 166.7C320 174.3 400 217.7 480 245.7C560 273.7 640 286.3 720 280.8C800 275.3 880 251.7 920 239.8L960 228L960 541L920 541C880 541 800 541 720 541C640 541 560 541 480 541C400 541 320 541 240 541C160 541 80 541 40 541L0 541Z" fill="#0e241f"></path><path d="M0 204L40 198.8C80 193.7 160 183.3 240 175.2C320 167 400 161 480 185.3C560 209.7 640 264.3 720 259.2C800 254 880 189 920 156.5L960 124L960 541L920 541C880 541 800 541 720 541C640 541 560 541 480 541C400 541 320 541 240 541C160 541 80 541 40 541L0 541Z" fill="#143321"></path><path d="M0 342L40 321.5C80 301 160 260 240 263.3C320 266.7 400 314.3 480 311.2C560 308 640 254 720 249.2C800 244.3 880 288.7 920 310.8L960 333L960 541L920 541C880 541 800 541 720 541C640 541 560 541 480 541C400 541 320 541 240 541C160 541 80 541 40 541L0 541Z" fill="#28401c"></path><path d="M0 378L40 361.3C80 344.7 160 311.3 240 290.7C320 270 400 262 480 253.2C560 244.3 640 234.7 720 243.2C800 251.7 880 278.3 920 291.7L960 305L960 541L920 541C880 541 800 541 720 541C640 541 560 541 480 541C400 541 320 541 240 541C160 541 80 541 40 541L0 541Z" fill="#444c12"></path><path d="M0 379L40 366.7C80 354.3 160 329.7 240 327.2C320 324.7 400 344.3 480 353.5C560 362.7 640 361.3 720 354.5C800 347.7 880 335.3 920 329.2L960 323L960 541L920 541C880 541 800 541 720 541C640 541 560 541 480 541C400 541 320 541 240 541C160 541 80 541 40 541L0 541Z" fill="#68530a"></path><path d="M0 357L40 365.5C80 374 160 391 240 398.5C320 406 400 404 480 404.2C560 404.3 640 406.7 720 416.3C800 426 880 443 920 451.5L960 460L960 541L920 541C880 541 800 541 720 541C640 541 560 541 480 541C400 541 320 541 240 541C160 541 80 541 40 541L0 541Z" fill="#915614"></path><path d="M0 465L40 462C80 459 160 453 240 455.7C320 458.3 400 469.7 480 464C560 458.3 640 435.7 720 432.8C800 430 880 447 920 455.5L960 464L960 541L920 541C880 541 800 541 720 541C640 541 560 541 480 541C400 541 320 541 240 541C160 541 80 541 40 541L0 541Z" fill="#bc5330"></path><path d="M0 514L40 513.7C80 513.3 160 512.7 240 513C320 513.3 400 514.7 480 511.3C560 508 640 500 720 490.3C800 480.7 880 469.3 920 463.7L960 458L960 541L920 541C880 541 800 541 720 541C640 541 560 541 480 541C400 541 320 541 240 541C160 541 80 541 40 541L0 541Z" fill="#e44c59"></path></svg>